HIERARCHY
ROOT Hips
{
	OFFSET 0.00000 0.00000 0.00000
	CHANNELS 6 Xposition Yposition Zposition Zrotation Yrotation Xrotation 
	JOINT RightUpLegDummy
	{
		OFFSET 0 0 0
		CHANNELS 3 Zrotation Yrotation Xrotation
		JOINT RightUpLeg
		{
			OFFSET -3.52197 -3.41223 0.04002
			CHANNELS 3 Zrotation Yrotation Xrotation
			JOINT RightLeg
			{
				OFFSET 0.00006 -17.42390 1.60435
				CHANNELS 3 Zrotation Yrotation Xrotation
				JOINT RightFoot
				{
					OFFSET 0.06154 -16.50078 -1.63900
					CHANNELS 3 Zrotation Yrotation Xrotation
					JOINT RightToes
					{
						OFFSET 0.00298 -1.73825 3.34613
						CHANNELS 3 Zrotation Yrotation Xrotation
						End Site
						{
							OFFSET 0.00480 -0.05416 3.85043
						}
					}
				}
			}
		}
	}
	JOINT SpineDummy
	{
		OFFSET 0 0 0
		CHANNELS 3 Zrotation Yrotation Xrotation
		JOINT Spine
		{
			OFFSET 0.00000 4.68130 0.00000
			CHANNELS 3 Zrotation Yrotation Xrotation
			JOINT Spine1
			{
				OFFSET -0.00000 10.10138 0.05002
				CHANNELS 3 Zrotation Yrotation Xrotation
				JOINT HEadDummy
				{
					OFFSET 0 0 0
					CHANNELS 3 Zrotation Yrotation Xrotation
					JOINT Head
					{
						OFFSET -0.00000 3.43865 0.00438
						CHANNELS 3 Zrotation Yrotation Xrotation
						End Site
						{
							OFFSET -0.11417 5.02924 0.98962
						}
					}
				}
				JOINT LeftShoulder1Dummy
				{
					OFFSET 0 0 0
					CHANNELS 3 Zrotation Yrotation Xrotation
					JOINT LeftShoulder1
					{
						OFFSET 3.53937 -0.14262 -0.08662
						CHANNELS 3 Zrotation Yrotation Xrotation
						JOINT LeftArm
						{
							OFFSET 4.04833 -0.00133 0.12681
							CHANNELS 3 Zrotation Yrotation Xrotation
							JOINT LeftForeArm
							{
								OFFSET 10.33880 -0.01036 -0.55515
								CHANNELS 3 Zrotation Yrotation Xrotation
								JOINT LeftHand
								{
									OFFSET 8.69677 0.07543 0.40060
									CHANNELS 3 Zrotation Yrotation Xrotation
									End Site
									{
										OFFSET 5.28377 -0.21905 0.59205
									}
								}
							}
						}
					}
				}
				JOINT RightShoulderDummy
				{
					OFFSET 0 0 0
					CHANNELS 3 Zrotation Yrotation Xrotation
					JOINT RightShoulder
					{
						OFFSET -3.53937 -0.14262 -0.08660
						CHANNELS 3 Zrotation Yrotation Xrotation
						JOINT RightArm
						{
							OFFSET -4.04833 -0.00133 0.12683
							CHANNELS 3 Zrotation Yrotation Xrotation
							JOINT RightForeArm
							{
								OFFSET -10.37987 -0.01039 -0.55511
								CHANNELS 3 Zrotation Yrotation Xrotation
								JOINT RightHand
								{
									OFFSET -8.67398 0.07538 0.40058
									CHANNELS 3 Zrotation Yrotation Xrotation
									End Site
									{
										OFFSET -5.24810 -0.21916 0.59204
									}
								}
							}
						}
					}
				}
			}
		}
	}
	JOINT LeftUpLegDummy
	{
		OFFSET 0 0 0
		CHANNELS 3 Zrotation Yrotation Xrotation
		JOINT LeftUpLeg
		{
			OFFSET 3.52197 -3.41223 0.04002
			CHANNELS 3 Zrotation Yrotation Xrotation
			JOINT LeftLeg
			{
				OFFSET -0.00012 -17.42399 1.60337
				CHANNELS 3 Zrotation Yrotation Xrotation
				JOINT LeftFoot
				{
					OFFSET -0.09972 -16.50070 -1.63802
					CHANNELS 3 Zrotation Yrotation Xrotation
					JOINT LeftToes
					{
						OFFSET -0.01575 -1.73823 3.34611
						CHANNELS 3 Zrotation Yrotation Xrotation
						End Site
						{
							OFFSET 0.03150 -0.01868 3.85031
						}
					}
				}
			}
		}
	}
}
MOTION
Frames: 9
Frame Time: 0.033333
-4.6761 40.2009 17.9041 175.9180 15.7811 179.4040 0.0000 0.0000 0.0000 -6.0707 -7.3319 1.7026 -2.6615 -6.5126 6.9370 6.6147 -0.2869 -6.9107 0.0000 0.0000 -0.0000 0.0000 0.0000 0.0000 -9.3212 -0.7995 -11.0444 3.9433 -1.3602 23.0057 0.0000 0.0000 0.0000 0.2418 9.9046 1.5424 0.0000 0.0000 0.0000 -20.2899 -5.2601 2.3416 -54.4454 -3.6757 26.6209 -135.6992 -86.5711 79.9059 21.8704 6.0027 0.0889 0.0000 0.0000 0.0000 18.4360 1.7115 1.2970 58.4873 10.8095 13.2140 3.1996 20.3731 7.4787 -6.1677 2.3196 -0.3895 0.0000 0.0000 0.0000 -3.7522 -1.4526 -0.7644 -0.1217 12.4553 1.0124 1.6982 -0.1366 -1.4994 -0.0000 0.0000 -0.0000
-4.6761 40.2009 17.9041 175.9220 15.8783 179.3910 0.0000 0.0000 0.0000 -6.0666 -7.3169 1.7026 -2.6607 -6.4313 6.9348 6.6350 -0.2882 -6.9038 0.0000 0.0000 -0.0000 0.0000 0.0000 0.0000 -9.3209 -0.7866 -11.1125 3.9234 -1.3346 23.0541 0.0000 0.0000 0.0000 0.2389 9.9026 1.5591 0.0000 0.0000 0.0000 -20.2545 -5.2628 2.3394 -54.4743 -3.6629 26.6406 -135.1643 -86.5988 79.4582 21.9833 5.9322 0.0765 0.0000 0.0000 0.0000 18.5630 1.6927 1.2970 58.3747 10.8494 13.1766 3.2036 20.3994 6.8217 -6.7656 2.4095 -0.4337 0.0000 0.0000 0.0000 -3.7360 -1.4244 -0.7198 -0.1409 12.5130 0.9731 1.6820 -0.1356 -1.5062 -0.0000 0.0000 -0.0000
-4.6769 40.2009 17.9042 175.9370 16.0175 179.3710 0.0000 0.0000 0.0000 -6.0391 -7.2709 1.7026 -2.6815 -6.3393 6.9198 6.6440 -0.2888 -6.8855 0.0000 0.0000 -0.0000 0.0000 0.0000 0.0000 -9.3426 -0.7916 -11.2464 3.9219 -1.3318 23.1811 0.0000 0.0000 0.0000 0.2123 9.8859 1.4911 0.0000 0.0000 0.0000 -20.2496 -5.2200 2.3276 -54.4516 -3.6969 26.7294 -134.1754 -86.6470 78.6019 22.0991 5.8095 0.0543 0.0000 0.0000 0.0000 18.6908 1.6767 1.2970 58.2811 10.9668 13.1911 3.1282 20.4979 6.0063 -7.4911 2.4478 -0.4846 0.0000 0.0000 0.0000 -3.7080 -1.3814 -0.6697 -0.1599 12.5911 0.9410 1.6712 -0.1349 -1.5175 -0.0000 0.0000 -0.0000
-4.6814 40.2009 17.9064 175.9630 16.0887 179.3680 0.0000 0.0000 0.0000 -5.9963 -7.2175 1.7000 -2.7143 -6.3230 6.8933 6.6317 -0.2881 -6.8603 0.0000 0.0000 -0.0000 0.0000 0.0000 0.0000 -9.3746 -0.8311 -11.3534 3.9527 -1.3807 23.2927 0.0000 0.0000 0.0000 0.1762 9.8345 1.3324 0.0000 0.0000 0.0000 -20.2918 -5.1635 2.3160 -54.3786 -3.7464 26.8465 -133.7619 -86.6628 78.2082 22.0330 5.7787 0.0482 0.0000 0.0000 0.0000 18.6845 1.6700 1.2970 58.3041 11.1305 13.4552 2.9765 20.6330 5.9023 -7.8084 2.5033 -0.5094 0.0000 0.0000 0.0000 -3.6849 -1.3597 -0.6746 -0.1515 12.6277 0.9672 1.6696 -0.1348 -1.5318 -0.0000 0.0000 -0.0000
-4.6907 40.2009 17.9128 175.9890 16.1165 179.3790 0.0000 0.0000 0.0000 -5.9643 -7.1809 1.6859 -2.7346 -6.3317 6.8699 6.6352 -0.2884 -6.8337 0.0000 0.0000 -0.0000 0.0000 0.0000 0.0000 -9.3526 -0.8601 -11.3964 3.9454 -1.4107 23.3257 0.0000 0.0000 0.0000 0.1774 9.7466 1.1887 0.0000 0.0000 0.0000 -20.2929 -5.1641 2.3162 -54.3518 -3.7531 26.9367 -134.4129 -86.6274 78.7492 21.8059 5.8764 0.0652 0.0000 0.0000 0.0000 18.6217 1.6593 1.2970 58.3484 11.2629 14.0504 2.7860 20.7946 6.2108 -7.9011 2.8046 -0.5339 0.0000 0.0000 0.0000 -3.6716 -1.3574 -0.7183 -0.1294 12.6529 1.0215 1.6694 -0.1348 -1.5494 -0.0000 0.0000 -0.0000
-4.7031 40.2009 17.9186 176.0020 16.1910 179.3770 0.0000 0.0000 0.0000 -5.9607 -7.1639 1.6666 -2.7374 -6.2724 6.8566 6.6730 -0.2909 -6.8083 0.0000 0.0000 -0.0000 0.0000 0.0000 0.0000 -9.2272 -0.8298 -11.3991 3.8256 -1.3415 23.2979 0.0000 0.0000 0.0000 0.2507 9.6318 1.1307 0.0000 0.0000 0.0000 -20.1895 -5.2293 2.3252 -54.4168 -3.7319 27.0170 -135.2699 -86.5830 79.5246 21.6219 5.9665 0.0807 0.0000 0.0000 0.0000 18.6603 1.6362 1.2966 58.2888 11.3087 14.8381 2.5472 21.0414 5.8107 -8.1117 3.2121 -0.5741 0.0000 0.0000 0.0000 -3.6700 -1.3529 -0.7309 -0.1221 12.7317 1.0386 1.6760 -0.1352 -1.5600 -0.0000 0.0000 -0.0000
-4.7168 40.2009 17.9215 176.0040 16.3136 179.3430 0.0000 0.0000 0.0000 -5.9773 -7.1556 1.6715 -2.7370 -6.1573 6.8428 6.7149 -0.2936 -6.7835 0.0000 0.0000 -0.0000 0.0000 0.0000 0.0000 -9.0527 -0.7590 -11.3900 3.6506 -1.2107 23.2520 0.0000 0.0000 0.0000 0.3581 9.5303 1.1300 0.0000 0.0000 0.0000 -20.0546 -5.3019 2.3334 -54.5066 -3.7331 27.1196 -135.3869 -86.5792 79.6937 21.6044 5.9422 0.0761 0.0000 0.0000 0.0000 18.7939 1.6024 1.2938 58.1542 11.3014 15.6038 2.2598 21.3886 4.3238 -8.4080 3.2902 -0.6010 0.0000 0.0000 0.0000 -3.6803 -1.3412 -0.6839 -0.1306 12.8516 1.0072 1.6967 -0.1365 -1.5536 -0.0000 0.0000 -0.0000
-4.7308 40.2009 17.9238 176.0070 16.3980 179.3010 0.0000 0.0000 0.0000 -5.9903 -7.1470 1.6972 -2.7451 -6.0820 6.8231 6.7307 -0.2947 -6.7589 0.0000 0.0000 -0.0000 0.0000 0.0000 0.0000 -8.9484 -0.7127 -11.3826 3.5737 -1.1386 23.2060 0.0000 0.0000 0.0000 0.4124 9.5204 1.1357 0.0000 0.0000 0.0000 -20.0204 -5.3339 2.3391 -54.5326 -3.7556 27.2156 -134.9700 -86.6037 79.3698 21.6910 5.8697 0.0634 0.0000 0.0000 0.0000 18.8487 1.5695 1.2859 58.0906 11.3201 16.2953 1.9771 21.7498 2.6823 -8.6352 2.9744 -0.5972 0.0000 0.0000 0.0000 -3.6941 -1.3332 -0.6304 -0.1361 12.9337 0.9782 1.7205 -0.1381 -1.5411 -0.0000 0.0000 -0.0000
-4.7444 40.2009 17.9285 176.0170 16.4105 179.2800 0.0000 0.0000 0.0000 -5.9921 -7.1368 1.7091 -2.7607 -6.0781 6.8131 6.7288 -0.2947 -6.7383 0.0000 0.0000 -0.0000 0.0000 0.0000 0.0000 -8.9452 -0.7140 -11.3640 3.6360 -1.1650 23.1365 0.0000 0.0000 0.0000 0.3948 9.6360 1.1527 0.0000 0.0000 0.0000 -20.1040 -5.3185 2.3419 -54.4922 -3.7592 27.2733 -134.8149 -86.6136 79.2189 21.8073 5.8420 0.0589 0.0000 0.0000 0.0000 18.7370 1.5600 1.2819 58.1608 11.3726 17.0003 1.7320 22.0435 1.9371 -8.8253 2.7067 -0.5928 0.0000 0.0000 0.0000 -3.7019 -1.3309 -0.6238 -0.1380 12.9484 0.9898 1.7313 -0.1389 -1.5440 -0.0000 0.0000 -0.0000
